 http://img696.imageshack.us/img696/4031/4k5d876esqvjrigqguew.jpg

Country.......: Malaysia
Genre.........: Action, Adventure
Date release..: 10.03.2011 [World]
Director......: Yusry Kru
Writers.......: Yusry Kru, Amir Hafizi
Duration......: 109 min.
More..........: http://www.imdb.com/title/tt1784670
Trailer.......:

Pilot :
The Malay Chronicles: Bloodlines (released in Malaysia as "Hikayat Merong Mahawangsa") is an adventure feature film set against the backdrop of ancient Malay, Roman and Chinese civilizations. It tells the tale of the journey of Merong Mahawangsa escorting a Roman prince to wed a beautiful Chinese princess during the 2nd century. Featuring an international cast, The Malay Chronicles: Bloodlines combines elements of romance, adventure, coupled with a strong dose of hand-to-hand combat & martial arts.  

Cats :
Stephen Rahman Hughes   	 ...  	Merong
Gavin Stenhouse 	... 	Marcus Carpenius
Jing Lusi 	... 	Princess Meng Li Hua
Craig Fong 	... 	Admiral Liu Yun
Henrik Norman 	... 	Lycius
Umie Aida 	... 	Lang
Jehan Miskin 	... 	Embi
Ummi Nazeera 	... 	Embok
Nell Ng 	... 	Ying Ying
Khir Rahman 	... 	Kamawas
Rahim Razali 	... 	Kesum
W. Hanafi W. Su 	... 	Taji 

Data Technical :
!!! SAMPLE !!!
Audio.....: English
Subtitles.: English .sub
Format                           : AVI
Format/Info                      : Audio Video Interleave
File size                        : 699 MiB
Duration                         : 1h 49mn
Overall bit rate                 : 895 Kbps
Writing application              : VirtualDubMod 1.5.4.1 (build 2178/release)
Writing library                  : VirtualDubMod build 2178/release
Video
ID                               : 0
Format                           : MPEG-4 Visual
Format profile                   : Advanced Simple@L5
Format settings, BVOP            : Yes
Format settings, QPel            : No
Format settings, GMC             : No warppoints
Format settings, Matrix          : Custom
Codec ID                         : XVID
Codec ID/Hint                    : XviD
Duration                         : 1h 49mn
Bit rate                         : 764 Kbps
Width                            : 640 pixels
Height                           : 368 pixels
Display aspect ratio             : 16:9
Frame rate                       : 25.000 fps
Color space                      : YUV
Chroma subsampling               : 4:2:0
Bit depth                        : 8 bits
Scan type                        : Progressive
Bits/(Pixel*Frame)               : 0.130
Stream size                      : 596 MiB (85%)
Writing library                  : XviD 58
Audio
ID                               : 1
Format                           : MPEG Audio
Format version                   : Version 1
Format profile                   : Layer 3
Mode                             : Joint stereo
Mode extension                   : MS Stereo
Codec ID                         : 55
Codec ID/Hint                    : MP3
Duration                         : 1h 49mn
Bit rate mode                    : Variable
Bit rate                         : 118 Kbps
Nominal bit rate                 : 128 Kbps
Channel(s)                       : 2 channels
Sampling rate                    : 48.0 KHz
Stream size                      : 92.3 MiB (13%)
Alignment                        : Aligned on interleaves
Interleave, duration             : 24 ms (0.60 video frame)
Interleave, preload duration     : 286 ms
Writing library                  : LAME3.98r
Encoding settings                : -m j -V 4 -q 2 -lowpass 17 --abr 128

Screen : 
http://img339.imageshack.us/img339/6407/themalaychroniclesblood.jpg 
http://img850.imageshack.us/img850/6407/themalaychroniclesblood.jpg 
http://img28.imageshack.us/img28/6407/themalaychroniclesblood.jpg 
http://img607.imageshack.us/img607/6407/themalaychroniclesblood.jpg 
http://img193.imageshack.us/img193/6407/themalaychroniclesblood.jpg